<?xml version="1.0" encoding="UTF-8"?>
<!-- Generated by Pixelmator Pro 3.7 -->
<svg width="24" height="24" viewBox="0 0 24 24" xmlns="http://www.w3.org/2000/svg">
    <g id="Group">
        <path id="Path" fill="currentColor" fill-rule="evenodd" stroke="none" d="M 11.208 9.32 L 9.29 11.253 C 8.902939 11.64292 8.902939 12.272079 9.29 12.662 C 9.474216 12.849195 9.725863 12.954616 9.9885 12.954616 C 10.251137 12.954616 10.502783 12.849195 10.687 12.662 L 11.977 11.361 L 13.313 12.708 C 13.497083 12.895328 13.748653 13.000927 14.011291 13.001116 C 14.273928 13.001304 14.525649 12.896064 14.71 12.709 C 15.096677 12.319471 15.097123 11.691077 14.711 11.301 L 12.746 9.321 C 12.543178 9.115051 12.266262 8.999002 11.977209 8.998814 C 11.688156 8.998625 11.41109 9.114315 11.208 9.32"/>
        <path id="path1" fill="#000000" fill-rule="evenodd" stroke="none" d="M 11 10.007 L 11.001 19.993 C 11.001 20.549999 11.449 21.000999 12.001 21 C 12.554 21 13.001 20.549999 13.001 19.993 L 13 10.006 C 13 9.451 12.552 9 12 9 C 11.448 9 10.999 9.451 11 10.007"/>
        <path id="path2" fill="#000000" fill-rule="evenodd" stroke="none" d="M 7.938 5.480999 C 7.681034 5.439812 7.421245 5.418747 7.161 5.417999 C 4.356 5.419001 2 7.619999 2 10.499 C 2 13.408 4.385 16 7.1 16 L 9.981 16 L 9.981 14.007 L 7.1 14.007 C 5.443 14.007 3.985 12.344 3.985 10.499 C 3.985 8.721 5.454 7.412001 7.089 7.412001 L 7.101 7.412001 C 7.49 7.412001 7.787 7.462999 8.071 7.562 L 8.241 7.625 C 8.846 7.873001 9.116 7.379 9.116 7.379 L 9.266 7.112 C 9.996 5.764999 11.467 5.015999 12.982 4.993 C 15.060898 5.013693 16.802025 6.572962 17.051001 8.637 L 17.097 8.977 C 17.097 8.977 17.167999 9.502 17.761999 9.502 C 17.775 9.502 17.774 9.507 17.785 9.507 L 18.039 9.507 C 19.174999 9.507 20.014999 10.466 20.014999 11.665 C 20.014999 12.872 19.028 14.007 17.945 14.007 L 13.981 14.007 L 13.981 16 L 17.945 16 C 20.105 16 22 13.955 22 11.665 C 22 9.666 20.688 8.002 18.862 7.591 C 18.155001 4.883999 15.809 3.039 12.976 3 C 11.001 3.021 9.075 3.901001 7.938 5.480999"/>
    </g>
</svg>
